<svg xmlns="http://www.w3.org/2000/svg" viewBox="-2.00 7.50 278.73 50.00" role="img" aria-label="Grandineticino.ch">
  <g class="brand-wordmark" fill="#111111">
    <path d="M11.9 35.476Q9.078000000000001 35.476 7.055000000000001 34.727999999999994Q5.032 33.98 3.7060000000000004 32.399Q2.3800000000000003 30.817999999999998 1.7510000000000003 28.336Q1.122 25.854 1.122 22.42V21.06Q1.122 17.625999999999998 1.7510000000000003 15.143999999999998Q2.3800000000000003 12.661999999999999 3.6720000000000006 11.080999999999998Q4.964 9.499999999999996 6.9190000000000005 8.751999999999997Q8.874 8.003999999999998 11.56 8.003999999999998Q14.008000000000001 8.003999999999998 15.878 8.496999999999998Q17.748 8.989999999999998 19.023000000000003 10.111999999999998Q20.298000000000002 11.233999999999998 20.944000000000003 13.018999999999998Q21.59 14.803999999999998 21.59 17.354V18.68H15.13Q15.13 17.523999999999997 15.011000000000001 16.589Q14.892000000000001 15.654 14.535 14.991Q14.178 14.328 13.549000000000001 13.953999999999999Q12.920000000000002 13.579999999999998 11.9 13.579999999999998H11.56Q10.268 13.579999999999998 9.503 14.106999999999998Q8.738000000000001 14.633999999999997 8.330000000000002 15.602999999999998Q7.922000000000001 16.572 7.803000000000001 17.948999999999998Q7.684 19.326 7.684 21.06V22.42Q7.684 24.154 7.82 25.531Q7.956 26.908 8.381 27.877000000000002Q8.806000000000001 28.846 9.605 29.372999999999998Q10.404 29.9 11.73 29.9H12.07Q13.906 29.9 15.096000000000002 29.22V25.82H11.9V20.244H21.556V32.348Q20.740000000000002 32.994 19.805 33.555Q18.87 34.116 17.714 34.541Q16.558 34.966 15.113 35.221000000000004Q13.668000000000001 35.476 11.9 35.476Z"/>
    <path d="M33.524 16.503999999999998Q33.864000000000004 16.503999999999998 34.034000000000006 16.538V22.93H33.014Q31.484 22.93 30.583000000000002 23.338Q29.682000000000002 23.746 29.376 24.119999999999997V35.0H23.12V22.08L22.78 16.98H28.424000000000003L28.798000000000002 18.985999999999997Q29.614000000000004 17.863999999999997 30.804000000000002 17.183999999999997Q31.994000000000003 16.503999999999998 33.524 16.503999999999998Z"/>
    <path d="M42.16 30.444Q42.942 30.444 43.588 30.137999999999998Q44.234 29.832 44.608000000000004 29.458V26.704L42.16 27.078Q41.072 27.247999999999998 40.732 27.707Q40.392 28.166 40.392 28.778V28.982Q40.392 29.526 40.783 29.985Q41.174 30.444 42.16 30.444ZM45.22 33.3Q44.268 34.286 42.925 34.881Q41.582 35.476 39.78 35.476Q38.182 35.476 37.111000000000004 35.016999999999996Q36.04 34.558 35.376999999999995 33.775999999999996Q34.714 32.994 34.442 31.991Q34.17 30.988 34.17 29.9V29.56Q34.17 28.098 34.646 27.078Q35.122 26.058 35.989000000000004 25.395Q36.856 24.732 38.08 24.341Q39.304 23.95 40.8 23.712L44.608000000000004 23.1Q44.54 22.113999999999997 44.114999999999995 21.654999999999998Q43.69 21.195999999999998 42.67 21.195999999999998Q41.514 21.195999999999998 41.123000000000005 21.74Q40.732 22.284 40.732 22.93H34.85V22.624Q34.85 21.4 35.241 20.294999999999998Q35.632 19.189999999999998 36.55 18.339999999999996Q37.468 17.49 38.998000000000005 16.997Q40.528 16.503999999999998 42.84 16.503999999999998Q45.152 16.503999999999998 46.699 16.962999999999997Q48.246 17.421999999999997 49.164 18.305999999999997Q50.082 19.189999999999998 50.473 20.482Q50.864000000000004 21.774 50.864000000000004 23.439999999999998V29.9L51.204 35.0H45.56Z"/>
    <path d="M63.138 35.0V23.95Q63.138 23.644 63.087 23.27Q63.036 22.896 62.832 22.59Q62.628 22.284 62.254 22.08Q61.879999999999995 21.875999999999998 61.233999999999995 21.875999999999998Q60.214 21.875999999999998 59.551 22.386Q58.888 22.896 58.616 23.27V35.0H52.36V22.08L52.019999999999996 16.98H57.663999999999994L58.071999999999996 19.223999999999997Q58.955999999999996 18.034 60.349999999999994 17.269Q61.744 16.503999999999998 63.784 16.503999999999998Q65.382 16.503999999999998 66.453 17.048Q67.524 17.592 68.187 18.493Q68.85 19.394 69.122 20.549999999999997Q69.394 21.706 69.394 22.93V35.0Z"/>
    <path d="M81.464 23.27Q81.192 22.896 80.529 22.386Q79.866 21.875999999999998 78.846 21.875999999999998Q77.554 21.875999999999998 77.061 22.759999999999998Q76.568 23.644 76.568 25.31V26.67Q76.568 28.336 77.061 29.22Q77.554 30.104 78.846 30.104Q79.866 30.104 80.529 29.594Q81.192 29.084 81.464 28.71ZM76.976 16.503999999999998Q78.506 16.503999999999998 79.594 17.013999999999996Q80.682 17.523999999999997 81.464 18.34V7.799999999999997H87.72V29.9L88.06 35.0H82.416L82.008 32.926Q81.226 34.048 80.019 34.762Q78.812 35.476 76.976 35.476Q75.14 35.476 73.86500000000001 34.847Q72.59 34.218 71.80799999999999 33.062Q71.026 31.906 70.686 30.274Q70.346 28.642 70.346 26.67V25.31Q70.346 23.338 70.686 21.706Q71.026 20.073999999999998 71.80799999999999 18.918Q72.59 17.762 73.86500000000001 17.133Q75.14 16.503999999999998 76.976 16.503999999999998Z"/>
    <path d="M95.71 14.939999999999998H89.25V8.479999999999997H95.71ZM89.352 16.98H95.608V35.0H89.352Z"/>
    <path d="M108.018 35.0V23.95Q108.018 23.644 107.967 23.27Q107.916 22.896 107.71199999999999 22.59Q107.508 22.284 107.13399999999999 22.08Q106.75999999999999 21.875999999999998 106.11399999999999 21.875999999999998Q105.094 21.875999999999998 104.43099999999998 22.386Q103.76799999999999 22.896 103.496 23.27V35.0H97.24V22.08L96.89999999999999 16.98H102.544L102.952 19.223999999999997Q103.836 18.034 105.22999999999999 17.269Q106.624 16.503999999999998 108.66399999999999 16.503999999999998Q110.262 16.503999999999998 111.333 17.048Q112.404 17.592 113.067 18.493Q113.72999999999999 19.394 114.002 20.549999999999997Q114.274 21.706 114.274 22.93V35.0Z"/>
    <path d="M123.58999999999999 21.195999999999998Q122.502 21.195999999999998 121.907 21.773999999999997Q121.312 22.351999999999997 121.17599999999999 23.78H126.00399999999999Q125.868 22.351999999999997 125.273 21.773999999999997Q124.678 21.195999999999998 123.58999999999999 21.195999999999998ZM121.17599999999999 28.2Q121.34599999999999 29.73 122.06 30.256999999999998Q122.774 30.784 123.964 30.784Q124.984 30.784 125.681 30.325Q126.378 29.866 126.378 29.22H132.26V29.356Q132.26 30.716 131.699 31.838Q131.138 32.96 130.067 33.775999999999996Q128.99599999999998 34.592 127.44899999999998 35.034Q125.90199999999999 35.476 123.92999999999999 35.476Q121.618 35.476 119.91799999999999 34.813Q118.21799999999999 34.15 117.113 32.96Q116.008 31.77 115.464 30.121000000000002Q114.91999999999999 28.472 114.91999999999999 26.5V25.479999999999997Q114.91999999999999 23.508 115.481 21.859Q116.04199999999999 20.21 117.14699999999999 19.02Q118.252 17.83 119.901 17.166999999999998Q121.55 16.503999999999998 123.726 16.503999999999998Q125.90199999999999 16.503999999999998 127.517 17.166999999999998Q129.132 17.83 130.186 19.02Q131.24 20.21 131.75 21.859Q132.26 23.508 132.26 25.479999999999997V28.2Z"/>
    <path d="M145.214 16.98V22.42H140.896V27.689999999999998Q140.896 29.22 141.559 29.662Q142.222 30.104 143.31 30.104Q143.718 30.104 144.228 30.036Q144.738 29.968 144.874 29.9V35.0Q144.636 35.136 143.88799999999998 35.306Q143.14 35.476 141.84799999999998 35.476Q140.216 35.476 138.89 35.102000000000004Q137.564 34.728 136.629 33.894999999999996Q135.694 33.062 135.16699999999997 31.701999999999998Q134.64 30.342 134.64 28.369999999999997V22.42H131.92V16.98H134.64V11.879999999999999H140.896V16.98Z"/>
    <path d="M152.66000000000003 14.939999999999998H146.20000000000002V8.479999999999997H152.66000000000003ZM146.30200000000002 16.98H152.55800000000002V35.0H146.30200000000002Z"/>
    <path d="M159.56200000000004 26.67Q159.56200000000004 28.336 160.05500000000004 29.22Q160.54800000000003 30.104 161.80600000000004 30.104Q162.72400000000005 30.104 163.25100000000003 29.594Q163.77800000000005 29.084 163.77800000000005 28.2H169.66000000000003V29.016Q169.66000000000003 32.008 167.63700000000003 33.742000000000004Q165.61400000000003 35.476 161.67000000000004 35.476Q159.49400000000003 35.476 157.91300000000004 34.847Q156.33200000000005 34.218 155.31200000000004 33.062Q154.29200000000003 31.906 153.81600000000003 30.274Q153.34000000000003 28.642 153.34000000000003 26.67V25.31Q153.34000000000003 23.338 153.81600000000003 21.706Q154.29200000000003 20.073999999999998 155.31200000000004 18.918Q156.33200000000005 17.762 157.91300000000004 17.133Q159.49400000000003 16.503999999999998 161.67000000000004 16.503999999999998Q165.61400000000003 16.503999999999998 167.63700000000003 18.288999999999998Q169.66000000000003 20.073999999999998 169.66000000000003 23.304V24.119999999999997H163.77800000000005Q163.77800000000005 22.93 163.25100000000003 22.403Q162.72400000000005 21.875999999999998 161.80600000000004 21.875999999999998Q160.54800000000003 21.875999999999998 160.05500000000004 22.759999999999998Q159.56200000000004 23.644 159.56200000000004 25.31Z"/>
    <path d="M176.73200000000006 14.939999999999998H170.27200000000005V8.479999999999997H176.73200000000006ZM170.37400000000005 16.98H176.63000000000005V35.0H170.37400000000005Z"/>
    <path d="M189.04000000000008 35.0V23.95Q189.04000000000008 23.644 188.9890000000001 23.27Q188.93800000000007 22.896 188.73400000000007 22.59Q188.53000000000006 22.284 188.15600000000006 22.08Q187.78200000000007 21.875999999999998 187.13600000000008 21.875999999999998Q186.11600000000007 21.875999999999998 185.4530000000001 22.386Q184.79000000000008 22.896 184.51800000000006 23.27V35.0H178.26200000000006V22.08L177.92200000000008 16.98H183.56600000000006L183.97400000000007 19.223999999999997Q184.85800000000006 18.034 186.25200000000007 17.269Q187.64600000000007 16.503999999999998 189.68600000000006 16.503999999999998Q191.28400000000008 16.503999999999998 192.35500000000008 17.048Q193.42600000000007 17.592 194.08900000000006 18.493Q194.75200000000007 19.394 195.02400000000006 20.549999999999997Q195.29600000000008 21.706 195.29600000000008 22.93V35.0Z"/>
    <path d="M204.61200000000008 30.104Q205.90400000000008 30.104 206.48200000000008 29.22Q207.06000000000006 28.336 207.06000000000006 26.67V25.31Q207.06000000000006 23.644 206.48200000000008 22.759999999999998Q205.90400000000008 21.875999999999998 204.61200000000008 21.875999999999998Q203.32000000000008 21.875999999999998 202.74200000000008 22.759999999999998Q202.16400000000007 23.644 202.16400000000007 25.31V26.67Q202.16400000000007 28.336 202.74200000000008 29.22Q203.32000000000008 30.104 204.61200000000008 30.104ZM204.61200000000008 35.476Q202.36800000000008 35.476 200.73600000000008 34.847Q199.10400000000007 34.218 198.03300000000007 33.062Q196.96200000000007 31.906 196.45200000000006 30.274Q195.94200000000006 28.642 195.94200000000006 26.67V25.31Q195.94200000000006 23.338 196.45200000000006 21.706Q196.96200000000007 20.073999999999998 198.03300000000007 18.918Q199.10400000000007 17.762 200.73600000000008 17.133Q202.36800000000008 16.503999999999998 204.61200000000008 16.503999999999998Q206.85600000000008 16.503999999999998 208.48800000000006 17.133Q210.12000000000006 17.762 211.19100000000006 18.918Q212.26200000000006 20.073999999999998 212.77200000000005 21.706Q213.28200000000007 23.338 213.28200000000007 25.31V26.67Q213.28200000000007 28.642 212.77200000000005 30.274Q212.26200000000006 31.906 211.19100000000006 33.062Q210.12000000000006 34.218 208.48800000000006 34.847Q206.85600000000008 35.476 204.61200000000008 35.476Z"/>
    <path d="M220.42200000000008 35.0H213.96200000000007V28.54H220.42200000000008Z"/>
    <path d="M227.3240000000001 26.67Q227.3240000000001 28.336 227.8170000000001 29.22Q228.3100000000001 30.104 229.5680000000001 30.104Q230.4860000000001 30.104 231.0130000000001 29.594Q231.5400000000001 29.084 231.5400000000001 28.2H237.42200000000008V29.016Q237.42200000000008 32.008 235.3990000000001 33.742000000000004Q233.3760000000001 35.476 229.4320000000001 35.476Q227.25600000000009 35.476 225.6750000000001 34.847Q224.0940000000001 34.218 223.0740000000001 33.062Q222.0540000000001 31.906 221.5780000000001 30.274Q221.1020000000001 28.642 221.1020000000001 26.67V25.31Q221.1020000000001 23.338 221.5780000000001 21.706Q222.0540000000001 20.073999999999998 223.0740000000001 18.918Q224.0940000000001 17.762 225.6750000000001 17.133Q227.25600000000009 16.503999999999998 229.4320000000001 16.503999999999998Q233.3760000000001 16.503999999999998 235.3990000000001 18.288999999999998Q237.42200000000008 20.073999999999998 237.42200000000008 23.304V24.119999999999997H231.5400000000001Q231.5400000000001 22.93 231.0130000000001 22.403Q230.4860000000001 21.875999999999998 229.5680000000001 21.875999999999998Q228.3100000000001 21.875999999999998 227.8170000000001 22.759999999999998Q227.3240000000001 23.644 227.3240000000001 25.31Z"/>
    <path d="M244.4600000000001 18.578Q245.3440000000001 17.625999999999998 246.6190000000001 17.064999999999998Q247.89400000000012 16.503999999999998 249.6280000000001 16.503999999999998Q251.2260000000001 16.503999999999998 252.2970000000001 17.048Q253.3680000000001 17.592 254.03100000000012 18.493Q254.6940000000001 19.394 254.96600000000012 20.549999999999997Q255.2380000000001 21.706 255.2380000000001 22.93V35.0H248.9820000000001V23.95Q248.9820000000001 23.644 248.9310000000001 23.27Q248.8800000000001 22.896 248.6760000000001 22.59Q248.4720000000001 22.284 248.0980000000001 22.08Q247.7240000000001 21.875999999999998 247.07800000000012 21.875999999999998Q246.0580000000001 21.875999999999998 245.3950000000001 22.386Q244.7320000000001 22.896 244.4600000000001 23.27V35.0H238.2040000000001V7.799999999999997H244.4600000000001Z"/>
  </g>
  <g class="brand-wordmark__flag" transform="translate(247.734 29.000)" aria-hidden="true">
    <rect width="18" height="18" rx="2.2" fill="#DA291C"/>
    <rect x="7.65" y="3.96" width="2.70" height="10.08" fill="#ffffff"/>
    <rect x="3.96" y="7.65" width="10.08" height="2.70" fill="#ffffff"/>
  </g>
</svg>
