<?xml version="1.0" encoding="UTF-8" standalone="no"?><!DOCTYPE svg PUBLIC "-//W3C//DTD SVG 1.1//EN" "http://www.w3.org/Graphics/SVG/1.1/DTD/svg11.dtd"><svg width="100%" height="100%" viewBox="0 0 10638 5862" version="1.1" xmlns="http://www.w3.org/2000/svg" xmlns:xlink="http://www.w3.org/1999/xlink" xml:space="preserve" xmlns:serif="http://www.serif.com/" style="fill-rule:evenodd;clip-rule:evenodd;stroke-linejoin:round;stroke-miterlimit:2;"><path d="M6256.54,2532.88l-0,-578.55l-46.875,0c-1350.25,-0.012 -2700.46,-0.241 -4050.69,1.392c-28.204,0.037 -62.596,14.833 -83.617,34.15c-208.604,191.696 -415.033,385.754 -621.991,579.233c-117.363,109.717 -234.563,219.6 -354.88,332.258c188.284,179.692 372.388,355.392 558.784,533.28c507,-474.938 1006.67,-943 1519.61,-1423.5l0,99.633c0,783.413 -0.687,1566.82 0.621,2350.23c0.246,146.746 18.058,291.134 123.5,406.417c111.921,122.367 260.392,149.421 415.992,149.592c822.591,0.896 1645.17,0.454 2467.76,0.291c24.417,-0.004 48.875,-2 72.292,-3.02l-0,-573.767c-32.917,-0 -60.375,-0.004 -87.834,-0.004c-571.416,-0 -1142.83,0.029 -1714.29,-0.021c-140.417,-0.013 -181.375,-40.604 -181.417,-180.188c-0.083,-548.387 -0.042,-1096.78 -0.042,-1645.17l0,-82.263l1983.08,0Z" style="fill-rule:nonzero;"/><path d="M6368.96,5017.45l90.834,-0c396.208,-0 792.416,0.008 1188.62,-0c423.875,-0.004 847.75,1.475 1271.58,-0.517c334.25,-1.571 514.875,-166 523.5,-490.8c8.125,-306.091 7.167,-612.825 -2.583,-918.871c-8.75,-275.787 -172.709,-434.45 -447.959,-455.929c-57.291,-4.466 -114.875,-6.487 -172.333,-6.562c-400.833,-0.567 -801.667,0.012 -1202.5,-0.575c-99,-0.146 -149.917,-28.721 -154.042,-110.838c-8.291,-164.471 -2.458,-329.654 -2.458,-503.696l1979.17,0l-0,-575.366l-94.5,-0c-774,-0 -1548,-0.267 -2322,0.487c-64.292,0.063 -128.875,3.896 -192.709,11.325c-286.333,33.338 -461.5,208.75 -465.041,471.796c-3.667,269.471 -3.417,539.067 0.291,808.537c2,145.659 46.959,278.146 166.625,371.73c100.25,78.4 220.125,102.337 344.417,102.683c382.375,1.063 764.792,0.346 1147.21,0.442c62.167,0.012 124.542,-2.163 186.5,1.587c93.667,5.659 137.084,51.504 138.75,145.788c1.917,105.933 0.5,211.92 0.5,317.887l0,255.196l-1981.88,0l0,575.696Z" style="fill-rule:nonzero;"/><path d="M2946.53,4742.82c-603.367,-578.496 -1210.1,-1153.48 -1813.84,-1731.59c-24.292,-23.262 -41.405,-66.279 -41.784,-100.321c-3.267,-292.496 -1.908,-585.05 -1.929,-877.583c-0.004,-24.45 0,-48.9 0,-73.704l-1088.97,-0l0,3053.1l1091.35,-0l0,-960.05c28.283,24.087 47.558,38.979 65.108,55.679c300.238,285.775 600.796,571.225 899.671,858.421c37.4,35.937 74.517,52.241 127.292,51.85c320.158,-2.367 685.954,-1.063 1006.13,-1.059c24.275,0 -152.208,-187.67 -243.029,-274.745" style="fill-rule:nonzero;"/><rect x="9552.25" y="1956.61" width="1085.2" height="3056.15"/><rect x="4377.58" y="3154.08" width="1879.06" height="566.946"/><path d="M1343.32,565.75c-216.48,41.375 -432.254,86.958 -649.638,122.792c-195.571,32.291 -392.852,54.208 -589.51,79.708c-17.571,2.292 -35.525,1.583 -53.471,0.958c-13.292,-0.458 -48.238,-4.458 -50.696,-17.5c0,0 5.225,-18.833 85.125,-28.833c775.573,-138.625 1532.41,-347.25 2283.19,-585.208c477.379,-151.334 975.679,-156.542 1472.06,-116.292c1069.21,86.708 2081.17,388.958 3062.17,812.25c96.291,41.542 220.458,25.333 331.541,24.292c387.167,-3.542 775.125,-31.25 1161.33,-14.834c721.666,30.667 1401.38,220.917 2017.33,610.209c68.417,43.25 131.25,95.291 196.625,143.25c43.25,34.083 34.917,47.791 -13.875,20.875c-66.375,-34.792 -133.458,-68.334 -199.083,-104.542c-653.875,-360.833 -1353.46,-558.208 -2100.67,-563.917c-399.083,-3.083 -798.292,25.292 -1197.54,31.084c-835.75,12.208 -1671.54,25.791 -2507.33,25.75c-769.721,-0.042 -1530.23,-88.417 -2276.77,-284.334c-306.883,-80.541 -618.887,-128.666 -938.012,-112.25c-16.513,0.834 -33.184,-1.416 -55.129,-2.458c8.733,-17.583 45.97,-36.917 57.508,-39.042c290.433,-53.208 577.671,-19.5 860.141,46.292c706.392,164.542 1420.18,271.792 2146.01,275.333c767.167,3.75 1534.42,-5.708 2301.62,-9.833c15.5,-0.083 59.167,0.625 93,-5.5c-32.208,-17.167 -75.583,-33.417 -92.292,-39.708c-831.833,-314.709 -1679.83,-567.25 -2567.36,-668.542c-699.037,-79.75 -1388.39,-62.625 -2060.46,179.125c-234.721,84.417 -476.996,147.833 -715.821,220.875" style="fill:#f7931e;fill-rule:nonzero;"/><path d="M0,5861.79l0,-369.538l52.792,0l-0,179.488l145.175,-179.488l65.991,0l-145.179,184.763l145.179,184.775l-65.991,-0l-145.175,-179.492l-0,179.492l-52.792,-0Z" style="fill:#f7931e;fill-rule:nonzero;"/><path d="M356.34,5492.25l158.377,263.959l-0,-263.959l52.791,0l0,369.538l-52.791,-0l-158.377,-263.954l-0,263.954l-52.792,-0l-0,-369.538l52.792,0Z" style="fill:#f7931e;fill-rule:nonzero;"/><path d="M673.088,5769.4c-0,26.396 13.199,39.596 39.595,39.596l65.988,-0c26.396,-0 39.596,-13.2 39.596,-39.596l-0,-184.767c-0,-26.4 -13.2,-39.596 -39.596,-39.596l-65.988,0c-26.396,0 -39.595,13.196 -39.595,39.596l-0,184.767Zm197.97,-0c0,61.596 -30.8,92.387 -92.387,92.387l-65.988,0c-61.591,0 -92.387,-30.791 -92.387,-92.387l-0,-184.767c-0,-61.591 30.796,-92.387 92.387,-92.387l65.988,-0c61.587,-0 92.387,30.796 92.387,92.387l0,184.767Z" style="fill:#f7931e;fill-rule:nonzero;"/><path d="M1222.12,5861.79l-68.629,-0l-58.071,-285.338l-58.071,285.338l-68.629,-0l-71.267,-369.538l52.792,0l52.787,290.346l65.992,-290.346l52.792,0l65.987,290.346l52.792,-290.346l52.791,0l-71.266,369.538Z" style="fill:#f7931e;fill-rule:nonzero;"/><rect x="1319.78" y="5650.62" width="158.375" height="52.792" style="fill:#f7931e;"/><path d="M1583.74,5492.25l-0.001,158.375l131.98,0l-0,-158.375l52.791,0l0,369.538l-52.791,-0l-0,-158.371l-131.98,0l0,158.371l-52.791,-0l-0,-369.538l52.791,0Z" style="fill:#f7931e;fill-rule:nonzero;"/><path d="M1874.09,5769.4c-0,26.396 13.2,39.596 39.591,39.596l65.992,-0c26.396,-0 39.592,-13.2 39.592,-39.596l-0,-184.767c-0,-26.4 -13.196,-39.596 -39.592,-39.596l-65.992,0c-26.391,0 -39.591,13.196 -39.591,39.596l-0,184.767Zm197.966,-0c0,61.596 -30.795,92.387 -92.383,92.387l-65.992,0c-61.591,0 -92.383,-30.791 -92.383,-92.387l0,-184.767c0,-61.591 30.792,-92.387 92.383,-92.387l65.992,-0c61.588,-0 92.383,30.796 92.383,92.387l0,184.767Z" style="fill:#f7931e;fill-rule:nonzero;"/><path d="M2423.12,5861.79l-68.629,-0l-58.071,-285.338l-58.071,285.338l-68.629,-0l-71.267,-369.538l52.792,0l52.791,290.346l65.988,-290.346l52.792,0l65.991,290.346l52.792,-290.346l52.787,0l-71.266,369.538Z" style="fill:#f7931e;fill-rule:nonzero;"/><path d="M2837.53,5650.62l0,52.792l-158.375,-0l0,105.583l158.375,0l0,52.792l-211.166,-0l-0,-369.542l211.166,0l0,52.792l-158.375,-0l0,105.583l158.375,0Z" style="fill:#f7931e;fill-rule:nonzero;"/><path d="M2890.33,5861.79l88.425,-184.775l-88.425,-184.763l60.713,0l71.266,157.313l71.267,-157.313l60.712,0l-88.425,184.763l88.425,184.775l-60.712,-0l-71.267,-157.05l-71.267,157.05l-60.712,-0Z" style="fill:#f7931e;fill-rule:nonzero;"/><path d="M3259.86,5545.04l0,105.583l92.384,0c26.4,0 39.596,-13.2 39.596,-39.592l-0,-26.396c-0,-26.4 -13.196,-39.595 -39.596,-39.595l-92.384,-0Zm0,158.375l0,158.375l-52.791,-0l-0,-369.542l145.175,0c61.591,0 92.387,30.796 92.387,92.387l0,26.396c0,61.588 -30.796,92.384 -92.387,92.384l-92.384,-0Z" style="fill:#f7931e;fill-rule:nonzero;"/><path d="M3708.59,5650.62l-0.001,52.792l-158.374,-0l-0.001,105.583l158.376,0l-0.001,52.792l-211.166,-0l-0,-369.542l211.167,0l-0,52.792l-158.375,-0l-0,105.583l158.375,0Z" style="fill:#f7931e;fill-rule:nonzero;"/><path d="M3814.17,5545.04l-0,105.583l92.383,0c26.4,0 39.596,-13.2 39.596,-39.592l0,-26.396c0,-26.4 -13.196,-39.595 -39.596,-39.595l-92.383,-0Zm70.742,158.375l-70.742,-0l-0,158.375l-52.792,-0l0,-369.542l145.175,0c61.592,0 92.388,30.796 92.388,92.387l-0,26.396c-0,55.43 -20.592,85.875 -61.767,91.33l61.767,159.429l-52.792,-0l-61.238,-158.375Z" style="fill:#f7931e;fill-rule:nonzero;"/><rect x="4051.73" y="5492.25" width="52.792" height="369.538" style="fill:#f7931e;"/><path d="M4368.46,5650.62l0,52.792l-158.375,-0l0,105.583l158.375,0l0,52.792l-211.146,-0l0,-369.542l211.146,0l0,52.792l-158.375,-0l0,105.583l158.375,0Z" style="fill:#f7931e;fill-rule:nonzero;"/><path d="M4474.04,5492.25l158.375,263.959l-0,-263.959l52.791,0l0,369.538l-52.791,-0l-158.375,-263.954l-0,263.954l-52.792,-0l0,-369.538l52.792,0Z" style="fill:#f7931e;fill-rule:nonzero;"/><path d="M4790.79,5769.4c-0,26.396 13.208,39.596 39.625,39.596l118.75,-0l-0,52.791l-118.75,0c-61.584,0 -92.417,-30.791 -92.417,-92.387l0,-184.767c0,-61.591 30.833,-92.387 92.417,-92.387l118.75,-0l-0,52.791l-118.75,0c-26.417,0 -39.625,13.196 -39.625,39.596l-0,184.767Z" style="fill:#f7931e;fill-rule:nonzero;"/><path d="M5213.12,5650.62l0,52.792l-158.375,-0l0,105.583l158.375,0l0,52.792l-211.167,-0l0,-369.542l211.167,0l0,52.792l-158.375,-0l0,105.583l158.375,0Z" style="fill:#f7931e;fill-rule:nonzero;"/><path d="M5371.5,5861.79l0,-52.792l145.208,-0c26.375,-0 39.584,-13.2 39.584,-39.596l-0,-26.396c-0,-26.391 -13.209,-39.591 -39.584,-39.591l-52.791,-0c-61.625,-0 -92.417,-30.792 -92.417,-92.384l0,-26.396c0,-61.591 30.792,-92.383 92.417,-92.383l145.166,0l0,52.788l-145.166,-0c-26.417,-0 -39.625,13.195 -39.625,39.595l-0,26.396c-0,26.392 13.208,39.592 39.625,39.592l52.791,-0c61.584,-0 92.375,30.796 92.375,92.383l0,26.396c0,61.596 -30.791,92.388 -92.375,92.388l-145.208,-0Z" style="fill:#f7931e;fill-rule:nonzero;"/><path d="M5873.04,5650.62l-0,52.792l-158.375,-0l-0,105.583l158.375,0l-0,52.792l-211.167,-0l0,-369.542l211.167,0l-0,52.792l-158.375,-0l-0,105.583l158.375,0Z" style="fill:#f7931e;fill-rule:nonzero;"/><path d="M5978.62,5545.04l0,105.583l92.375,0c26.417,0 39.583,-13.2 39.583,-39.592l0,-26.396c0,-26.4 -13.166,-39.595 -39.583,-39.595l-92.375,-0Zm70.75,158.375l-70.75,-0l0,158.375l-52.792,-0l0,-369.542l145.167,0c61.583,0 92.375,30.796 92.375,92.387l0,26.396c0,55.43 -20.583,85.875 -61.75,91.33l61.75,159.429l-52.792,-0l-61.208,-158.375Z" style="fill:#f7931e;fill-rule:nonzero;"/><path d="M6427.33,5492.25l52.792,0l-110.833,369.538l-68.667,-0l-110.833,-369.538l52.791,0l92.375,316.75l92.375,-316.75Z" style="fill:#f7931e;fill-rule:nonzero;"/><rect x="6506.54" y="5492.25" width="52.792" height="369.538" style="fill:#f7931e;"/><path d="M6664.92,5769.4c-0,26.396 13.166,39.596 39.583,39.596l118.792,-0l-0,52.791l-118.792,0c-61.583,0 -92.375,-30.791 -92.375,-92.387l0,-184.767c0,-61.591 30.792,-92.387 92.375,-92.387l118.792,-0l-0,52.791l-118.792,0c-26.417,0 -39.583,13.196 -39.583,39.596l-0,184.767Z" style="fill:#f7931e;fill-rule:nonzero;"/><path d="M7087.25,5650.62l0,52.792l-158.375,-0l0,105.583l158.375,0l0,52.792l-211.167,-0l0,-369.542l211.167,0l0,52.792l-158.375,-0l0,105.583l158.375,0Z" style="fill:#f7931e;fill-rule:nonzero;"/><rect x="7245.62" y="5492.25" width="52.796" height="369.538" style="fill:#f7931e;"/><path d="M7404,5492.25l158.333,263.959l0,-263.959l52.834,0l-0,369.538l-52.834,-0l-158.333,-263.954l0,263.954l-52.833,-0l-0,-369.538l52.833,0Z" style="fill:#f7931e;fill-rule:nonzero;"/><path d="M7905.5,5492.25l0,52.792l-92.375,0l0,316.746l-52.792,-0l0,-316.746l-92.416,0l-0,-52.792l237.583,0Z" style="fill:#f7931e;fill-rule:nonzero;"/><path d="M8169.46,5650.62l0,52.792l-158.375,-0l0,105.583l158.375,0l0,52.792l-211.166,-0l-0,-369.542l211.166,0l0,52.792l-158.375,-0l0,105.583l158.375,0Z" style="fill:#f7931e;fill-rule:nonzero;"/><path d="M8275.04,5545.04l-0,105.583l92.375,0c26.416,0 39.583,-13.2 39.583,-39.592l0,-26.396c0,-26.4 -13.167,-39.595 -39.583,-39.595l-92.375,-0Zm70.75,158.375l-70.75,-0l-0,158.375l-52.792,-0l0,-369.542l145.167,0c61.583,0 92.375,30.796 92.375,92.387l-0,26.396c-0,55.43 -20.584,85.875 -61.75,91.33l61.75,159.429l-52.792,-0l-61.208,-158.375Z" style="fill:#f7931e;fill-rule:nonzero;"/><path d="M8565.38,5492.25l158.375,263.959l0,-263.959l52.792,0l-0,369.538l-52.792,-0l-158.375,-263.954l0,263.954l-52.792,-0l0,-369.538l52.792,0Z" style="fill:#f7931e;fill-rule:nonzero;"/><path d="M8896.38,5729.81l103.5,0l-51.75,-184.771l-51.75,184.771Zm196.917,131.979l-52.792,0l-24.542,-79.191l-135.666,-0l-24.542,79.191l-52.792,0l110.875,-369.541l68.625,-0l110.834,369.541Z" style="fill:#f7931e;fill-rule:nonzero;"/><path d="M9357.25,5492.25l0,52.792l-92.375,0l0,316.746l-52.792,-0l0,-316.746l-92.375,0l0,-52.792l237.542,0Z" style="fill:#f7931e;fill-rule:nonzero;"/><rect x="9410.04" y="5492.25" width="52.792" height="369.538" style="fill:#f7931e;"/><path d="M9568.42,5769.4c-0,26.396 13.208,39.596 39.583,39.596l66,-0c26.417,-0 39.625,-13.2 39.625,-39.596l0,-184.767c0,-26.4 -13.208,-39.596 -39.625,-39.596l-66,0c-26.375,0 -39.583,13.196 -39.583,39.596l-0,184.767Zm197.958,-0c0,61.596 -30.792,92.387 -92.375,92.387l-66,0c-61.583,0 -92.375,-30.791 -92.375,-92.387l0,-184.767c0,-61.591 30.792,-92.387 92.375,-92.387l66,-0c61.583,-0 92.375,30.796 92.375,92.387l0,184.767Z" style="fill:#f7931e;fill-rule:nonzero;"/><path d="M9871.96,5492.25l158.375,263.959l0,-263.959l52.792,0l0,369.538l-52.792,-0l-158.375,-263.954l0,263.954l-52.791,-0l-0,-369.538l52.791,0Z" style="fill:#f7931e;fill-rule:nonzero;"/><path d="M10203,5729.81l103.5,0l-51.75,-184.771l-51.75,184.771Zm196.917,131.979l-52.792,0l-24.541,-79.191l-135.667,-0l-24.542,79.191l-52.791,0l110.875,-369.541l68.625,-0l110.833,369.541Z" style="fill:#f7931e;fill-rule:nonzero;"/><path d="M10479.1,5809l158.375,0l0,52.792l-211.166,-0l-0,-369.542l52.791,0l0,316.75Z" style="fill:#f7931e;fill-rule:nonzero;"/></svg>